<svg id="Capa_2" data-name="Capa 2" xmlns="http://www.w3.org/2000/svg" viewBox="0 0 150 100"><defs><style>.cls-1{fill:#fff;}</style></defs><title>icono_home-01</title><path class="cls-1" d="M26.63,28.09L73.42,3.48a3.65,3.65,0,0,1,3.39,0l46.91,24.62a2.1,2.1,0,0,1-1,4H27.61A2.1,2.1,0,0,1,26.63,28.09Z"/><rect class="cls-1" x="36.21" y="34.59" width="77.31" height="6.34" rx="3.17" ry="3.17"/><rect class="cls-1" x="30.19" y="82.75" width="89.67" height="13.62" rx="2.77" ry="2.77"/><path class="cls-1" d="M58.71,86.39H40L41.2,45.79A2.89,2.89,0,0,1,44.09,43H54.34a2.89,2.89,0,0,1,2.89,2.78Z"/><path class="cls-1" d="M84.52,86.39H65.83L67,45.79A2.89,2.89,0,0,1,69.9,43H80.15A2.89,2.89,0,0,1,83,45.77Z"/><path class="cls-1" d="M110.36,86.39H91.67l1.19-40.61A2.89,2.89,0,0,1,95.74,43H106a2.89,2.89,0,0,1,2.89,2.78Z"/></svg>