<svg id="Capa_1" data-name="Capa 1" xmlns="http://www.w3.org/2000/svg" viewBox="0 0 150 100"><defs><style>.cls-1{fill:#fff;}</style></defs><title>icono_versus</title><path class="cls-1" d="M103.67,22.52L103.6,6.2a2.85,2.85,0,0,0-.86-2l-1-1a2.85,2.85,0,0,0-2.06-.81l-16.18.43a2.85,2.85,0,0,0-2,.86L38.09,48.09a3.28,3.28,0,0,0,.06,4.64l5.61,5.48,35.16-36a3.71,3.71,0,0,1,5.31,5.18l-35.16,36L54.81,69A3.28,3.28,0,0,0,59.46,69l43.4-44.44A2.85,2.85,0,0,0,103.67,22.52Z"/><path class="cls-1" d="M72.28,69.74a3.58,3.58,0,0,0-5.07.06L61.14,76s-3.93,4.39-6.86,1.53L42,65.51l-12.33-12C26.69,50.61,31,46.58,31,46.58l6.08-6.22a3.58,3.58,0,1,0-5.13-5l-8.13,8.33A10.87,10.87,0,0,0,24,59.06l0.46,0.45,5.86,5.72s-2,2.38-5,5.85A43.26,43.26,0,0,0,19.8,80l-2.2-2.15a4.09,4.09,0,0,0-5.72,5.86l6.29,6.14L24.47,96a4.09,4.09,0,0,0,5.72-5.86L28,88a43.26,43.26,0,0,0,8.8-5.71c3.4-3.12,5.73-5.13,5.73-5.13l5.86,5.72,0.46,0.45a10.87,10.87,0,0,0,15.38-.18l8.13-8.33A3.58,3.58,0,0,0,72.28,69.74Z"/><path class="cls-1" d="M111.13,52.21a3.28,3.28,0,0,0-.06-4.64L95.35,32.21l-7.91,8.1L105.52,58Z"/><path class="cls-1" d="M58.72,17.91L60,16.59a2.82,2.82,0,0,1,4,0L66.47,19,74,11.34,66.64,4.17a2.85,2.85,0,0,0-2-.81l-16.32.07a2.85,2.85,0,0,0-2,.86l-1,1a2.85,2.85,0,0,0-.81,2.06l0.43,16.18a2.85,2.85,0,0,0,.86,2l7.35,7.18,8.11-8.3-2.5-2.5A2.82,2.82,0,0,1,58.72,17.91Z"/><path class="cls-1" d="M94.86,68.88l5.48-5.61L82.26,45.61l-7.77,8L90.21,68.93A3.28,3.28,0,0,0,94.86,68.88Z"/><path class="cls-1" d="M138.05,76.77a4.09,4.09,0,0,0-5.79.07L130.12,79a43.26,43.26,0,0,0-5.71-8.8c-3.12-3.4-5.13-5.73-5.13-5.73L125,58.65l0.45-.46a10.87,10.87,0,0,0-.18-15.38l-8.33-8.13a3.58,3.58,0,1,0-5,5.13l6.22,6.08s4.39,3.93,1.53,6.86l-12,12.33-12,12.33C92.73,80.33,88.7,76,88.7,76L82.47,70a3.58,3.58,0,1,0-5,5.13l8.33,8.13A10.87,10.87,0,0,0,101.17,83l0.45-.46,5.72-5.86s2.38,2,5.85,5a43.26,43.26,0,0,0,8.93,5.5L120,89.42a4.09,4.09,0,0,0,5.86,5.72L132,88.85l6.14-6.29A4.09,4.09,0,0,0,138.05,76.77Z"/></svg>