<svg id="Capa_4" data-name="Capa 4" xmlns="http://www.w3.org/2000/svg" viewBox="0 0 150 100"><defs><style>.cls-1{fill:#fff;}.cls-2{fill:none;stroke:#fff;stroke-miterlimit:10;stroke-width:3.67px;}</style></defs><title>icono_tienda</title><path class="cls-1" d="M74.54,18A31.53,31.53,0,1,0,106.07,49.5,31.53,31.53,0,0,0,74.54,18ZM91.6,53.37l-3.19.4v1.6L87,56.66l0.3,1.3a5.92,5.92,0,0,1-1.1,1c-0.5.3,0,2.29,0,3.09s-0.5,1.6-2.1,2.1a2.24,2.24,0,0,1-.82,0c-1.34-.46-7.24-2.46-9-2.91a1.93,1.93,0,0,1-1.5-1.5l-0.3-3.19a0.8,0.8,0,0,0-1.59.15l0.3,3.21a3.53,3.53,0,0,0,2.68,2.87c0.57,0.15,1.66.49,2.9,0.89v6.91s-9.48-4.79-12.17-5.29a10.88,10.88,0,0,0-4.49,0s2.59-5.79,2.89-7-3-13.27-3.49-15.46a13.28,13.28,0,0,1,3.59-12.27c4.59-4.79,11.77-4.89,19.75-1.8a12.68,12.68,0,0,1,7.83,7.68,3.71,3.71,0,0,1,.19.36l-0.06,0c0.44,1.35.58,2.42,0.72,2.8,0.4,1.1,0,2.2-.9,3.59s-3,.7-3,0.7l-0.1,3.29Z"/><path class="cls-1" d="M90.94,36.87a3.71,3.71,0,0,0-.19-0.36l0.13,0.39Z"/><path class="cls-1" d="M89.34,35.19a3.1,3.1,0,0,0-1.8-.2c0.28-.28.42-0.45,0.44-0.48L87.35,34l-0.07.08A3.9,3.9,0,0,0,87.2,33a3.31,3.31,0,0,0-1.41-1.84,3.31,3.31,0,0,0-.54,2.26,2.77,2.77,0,0,0,1,1.74,30.42,30.42,0,0,1-3.63,2.64,3.59,3.59,0,0,0,.23-1.42,3.31,3.31,0,0,0-1.05-2.07,3.31,3.31,0,0,0-.94,2.12,2.46,2.46,0,0,0,.77,2c-1.1.66-2.39,1.37-3.89,2.13l-0.13.06a3.37,3.37,0,0,0,.3-1.58,3.31,3.31,0,0,0-1.05-2.07A3.31,3.31,0,0,0,75.89,39a2.47,2.47,0,0,0,.77,2c-1.68.79-3.42,1.52-5.1,2.17a3.65,3.65,0,0,0,.52-1.27,3.31,3.31,0,0,0-.53-2.26,3.31,3.31,0,0,0-1.42,1.83,2.42,2.42,0,0,0,.29,2.12c-1.82.67-3.54,1.25-5,1.71A3.57,3.57,0,0,0,66,44a3.31,3.31,0,0,0-.53-2.26A3.31,3.31,0,0,0,64,43.53a2.43,2.43,0,0,0,.28,2.12c-2.09.64-3.46,1-3.5,1L61,47.42s1.49-.38,3.69-1.06A2.35,2.35,0,0,0,66.14,48a3.31,3.31,0,0,0,2.32.12,3.31,3.31,0,0,0-1.37-1.87,4,4,0,0,0-.89-0.35c1.54-.49,3.3-1.1,5.15-1.79-0.23.49,0.37,1.31,1.38,1.85a3.31,3.31,0,0,0,2.32.12,3.31,3.31,0,0,0-1.37-1.87,3.57,3.57,0,0,0-1.41-.44c1.6-.63,3.24-1.32,4.83-2.07a2.4,2.4,0,0,0,1.42,1.61,3.31,3.31,0,0,0,2.32.12,3.31,3.31,0,0,0-1.37-1.87,3.73,3.73,0,0,0-1.22-.42c1.58-.79,2.91-1.54,4.05-2.23a2.31,2.31,0,0,0,1.63,1.47,3.31,3.31,0,0,0,2.31-.18,3.31,3.31,0,0,0-1.6-1.68,3.7,3.7,0,0,0-1.3-.26A28.45,28.45,0,0,0,87,35.49c-0.06.51,0.62,1.18,1.62,1.56a3.25,3.25,0,0,0,2.26-.16l-0.13-.39A3,3,0,0,0,89.34,35.19Z"/><circle class="cls-2" cx="74.54" cy="49.5" r="44.12"/></svg>