<svg id="Capa_3" data-name="Capa 3" xmlns="http://www.w3.org/2000/svg" viewBox="0 0 150 100"><defs><style>.cls-1{fill:#fff;}</style></defs><title>icono_torneo</title><path class="cls-1" d="M141.22,91.65L137.9,69.16H10.5L8.68,91.65H1.92v4.14H147.33V91.65h-6.11Zm-117.05,0V85.21c0-3.1,2.23-5.62,5-5.62s5,2.52,5,5.62v6.44h-10Zm26.61,0V85.21c0-3.1,2.23-5.62,5-5.62s5,2.52,5,5.62v6.44h-10Zm26.61,0V85.21c0-3.1,2.23-5.62,5-5.62s5,2.52,5,5.62v6.44h-10Zm43.58,0V85.21c0-3.1,2.23-5.62,5-5.62s5,2.52,5,5.62v6.44H121Z"/><path class="cls-1" d="M24.17,23.68c0-3.1,2.23-5.62,5-5.62s5,2.52,5,5.62v8.76H50.77V23.68c0-3.1,2.23-5.62,5-5.62s5,2.52,5,5.62v8.76H79.86L63.62,5.3H15.68l-2.2,27.15H24.17V23.68Z"/><polygon class="cls-1" points="130.93 21.85 122.56 21.85 117.97 30.12 114.93 23.4 106.05 23.91 98.79 34.52 132.79 34.52 130.93 21.85"/><path class="cls-1" d="M13.16,56.26c0-3.1,2.23-5.62,5-5.62s5,2.52,5,5.62V65H37.47V56.26c0-3.1,2.23-5.62,5-5.62s5,2.52,5,5.62V65H63.62V56.26c0-3.1,2.23-5.62,5-5.62s5,2.52,5,5.62V65h36.36V56.26c0-3.1,2.23-5.62,5-5.62s5,2.52,5,5.62V65h17.38L133.4,38.65H83.57l-1.24-2.07H13.14L10.84,65h2.32V56.26Z"/></svg>