<svg id="Capa_1" data-name="Capa 1" xmlns="http://www.w3.org/2000/svg" xmlns:xlink="http://www.w3.org/1999/xlink" viewBox="0 0 266.51 110.61"><defs><style>.cls-1{fill:url(#Nueva_muestra_de_degradado_12);}.cls-2{fill:url(#Nueva_muestra_de_degradado_12-2);}.cls-3{fill:url(#Nueva_muestra_de_degradado_12-3);}.cls-4{fill:url(#Nueva_muestra_de_degradado_12-4);}.cls-5{fill:url(#Nueva_muestra_de_degradado_12-5);}.cls-6{fill:url(#Nueva_muestra_de_degradado_12-6);}.cls-7{fill:#5de813;}.cls-8{fill:url(#Nueva_muestra_de_degradado_12-7);}.cls-9{fill:url(#Nueva_muestra_de_degradado_12-8);}.cls-10{fill:url(#Nueva_muestra_de_degradado_12-9);}.cls-11{fill:url(#Nueva_muestra_de_degradado_12-10);}.cls-12{fill:url(#Nueva_muestra_de_degradado_12-11);}.cls-13{fill:url(#Nueva_muestra_de_degradado_12-12);}</style><linearGradient id="Nueva_muestra_de_degradado_12" x1="7007.49" y1="7170.87" x2="7403.57" y2="7240.71" gradientUnits="userSpaceOnUse"><stop offset="0" stop-color="#a86b1d"/><stop offset="0.5" stop-color="#f8e687"/><stop offset="1" stop-color="#a86b1d"/></linearGradient><linearGradient id="Nueva_muestra_de_degradado_12-2" x1="7007.73" y1="7169.47" x2="7403.82" y2="7239.31" xlink:href="#Nueva_muestra_de_degradado_12"/><linearGradient id="Nueva_muestra_de_degradado_12-3" x1="7008.31" y1="7166.23" x2="7404.39" y2="7236.07" xlink:href="#Nueva_muestra_de_degradado_12"/><linearGradient id="Nueva_muestra_de_degradado_12-4" x1="7007.33" y1="7171.78" x2="7403.41" y2="7241.62" xlink:href="#Nueva_muestra_de_degradado_12"/><linearGradient id="Nueva_muestra_de_degradado_12-5" x1="7008.15" y1="7167.14" x2="7404.23" y2="7236.98" xlink:href="#Nueva_muestra_de_degradado_12"/><linearGradient id="Nueva_muestra_de_degradado_12-6" x1="7007.9" y1="7168.54" x2="7403.98" y2="7238.38" xlink:href="#Nueva_muestra_de_degradado_12"/><linearGradient id="Nueva_muestra_de_degradado_12-7" x1="-54.98" y1="-3.66" x2="341.11" y2="66.18" xlink:href="#Nueva_muestra_de_degradado_12"/><linearGradient id="Nueva_muestra_de_degradado_12-8" x1="-57.14" y1="8.61" x2="338.94" y2="78.45" xlink:href="#Nueva_muestra_de_degradado_12"/><linearGradient id="Nueva_muestra_de_degradado_12-9" x1="-58.07" y1="13.87" x2="338.02" y2="83.71" xlink:href="#Nueva_muestra_de_degradado_12"/><linearGradient id="Nueva_muestra_de_degradado_12-10" x1="-60.23" y1="26.14" x2="335.85" y2="95.98" xlink:href="#Nueva_muestra_de_degradado_12"/><linearGradient id="Nueva_muestra_de_degradado_12-11" x1="7006.92" y1="7174.09" x2="7403" y2="7243.93" xlink:href="#Nueva_muestra_de_degradado_12"/><linearGradient id="Nueva_muestra_de_degradado_12-12" x1="7008.17" y1="7166.99" x2="7404.26" y2="7236.83" xlink:href="#Nueva_muestra_de_degradado_12"/></defs><title>Logo_4gamers</title><path class="cls-1" d="M7174.92,7200.44l0.1-.13-0.15.19Z" transform="translate(-7067.7 -7144.84)"/><path class="cls-2" d="M7168.78,7195.59a3.63,3.63,0,0,0,.91,4.71A3.7,3.7,0,0,1,7168.78,7195.59Z" transform="translate(-7067.7 -7144.84)"/><path class="cls-3" d="M7173.92,7195.4l0.1,0.08,0,0Z" transform="translate(-7067.7 -7144.84)"/><path class="cls-4" d="M7169.83,7200.43l0.06,0-0.1-.09Z" transform="translate(-7067.7 -7144.84)"/><path class="cls-5" d="M7168.89,7195.44l-0.1.13,0.15-.19Z" transform="translate(-7067.7 -7144.84)"/><path class="cls-6" d="M7174.12,7195.58a3.7,3.7,0,0,1,.91,4.71A3.63,3.63,0,0,0,7174.12,7195.58Z" transform="translate(-7067.7 -7144.84)"/><circle class="cls-7" cx="191.37" cy="39.78" r="7.87"/><circle class="cls-8" cx="191.37" cy="39.78" r="7.87"/><circle class="cls-7" cx="206.73" cy="55.14" r="7.87"/><circle class="cls-9" cx="206.73" cy="55.14" r="7.87"/><circle class="cls-7" cx="176.01" cy="55.14" r="7.87"/><circle class="cls-10" cx="176.01" cy="55.14" r="7.87"/><circle class="cls-7" cx="191.37" cy="70.5" r="7.87"/><circle class="cls-11" cx="191.37" cy="70.5" r="7.87"/><path class="cls-7" d="M7169.62,7192.26h-8.92v-8.92h0a7.6,7.6,0,0,0-15.2,0h0v8.92h-8.92a7.6,7.6,0,1,0,0,15.2h8.92v8.92a7.6,7.6,0,0,0,15.2,0v-8.92h8.92A7.6,7.6,0,0,0,7169.62,7192.26Zm-0.73,3.18,0.05-.05-0.15.19Zm-0.11.15a3.7,3.7,0,0,0,.91,4.71A3.63,3.63,0,0,1,7168.78,7195.59Zm1.06,4.84,0,0,0.1,0.09Zm4.08-5,0.06,0,0,0Zm1,5-0.05.05,0.15-.19Zm0.11-.15a3.7,3.7,0,0,0-.91-4.71A3.63,3.63,0,0,1,7175,7200.29Z" transform="translate(-7067.7 -7144.84)"/><path class="cls-12" d="M7169.62,7192.26h-8.92v-8.92h0a7.6,7.6,0,0,0-15.2,0h0v8.92h-8.92a7.6,7.6,0,1,0,0,15.2h8.92v8.92a7.6,7.6,0,0,0,15.2,0v-8.92h8.92A7.6,7.6,0,0,0,7169.62,7192.26Zm-0.73,3.18,0.05-.05-0.15.19Zm-0.11.15a3.7,3.7,0,0,0,.91,4.71A3.63,3.63,0,0,1,7168.78,7195.59Zm1.06,4.84,0,0,0.1,0.09Zm4.08-5,0.06,0,0,0Zm1,5-0.05.05,0.15-.19Zm0.11-.15a3.7,3.7,0,0,0-.91-4.71A3.63,3.63,0,0,1,7175,7200.29Z" transform="translate(-7067.7 -7144.84)"/><path class="cls-7" d="M7318.72,7234.18h-31.61c-0.49-.2-1-0.39-1.52-0.57H7239.5c-2.15,0-5.9-2.24-6.92-4.12l-16.26-30,1.57-2.91,0.08-.15,13.84-25.62c1-1.89,4.77-4.12,6.92-4.12h58.14c15.76-5.38,15.49-21.27,15.49-21.27H7300.3c0-.36,0-0.57,0-0.57h-61.58c-9.9,0-20.92,6.57-25.63,15.28l-9,16.7-9-16.7c-4.71-8.71-15.73-15.28-25.63-15.28h-39.15l-0.55.76-2.56,3.67-4.67,6.7-5,7.22-38.78,55.61-10.31,14.78h-0.67s0,0.21,0,.57h0s0,0.13,0,.38h0c0,0.14,0,.31,0,0.52l0,0,0,0c0.24,3.54,2.06,15.71,15.46,20.29h23.88v0h61.58c9.9,0,20.92-6.57,25.63-15.28l9.79-18.08,9.79,18.08c4.71,8.71,15.73,15.28,25.63,15.28h94.71S7334.47,7239.56,7318.72,7234.18Zm-143.14-4.7c-1,1.89-4.77,4.12-6.92,4.12H7130.3l-1,0h-35.85q1.33-.91,2.69-2l27.53-39.48,17.7-25.38h28.07c2.15,0,5.9,2.24,6.92,4.12l13.84,25.62,0.08,0.15,1.57,2.91Z" transform="translate(-7067.7 -7144.84)"/><path class="cls-13" d="M7318.72,7234.18h-31.61c-0.49-.2-1-0.39-1.52-0.57H7239.5c-2.15,0-5.9-2.24-6.92-4.12l-16.26-30,1.57-2.91,0.08-.15,13.84-25.62c1-1.89,4.77-4.12,6.92-4.12h58.14c15.76-5.38,15.49-21.27,15.49-21.27H7300.3c0-.36,0-0.57,0-0.57h-61.58c-9.9,0-20.92,6.57-25.63,15.28l-9,16.7-9-16.7c-4.71-8.71-15.73-15.28-25.63-15.28h-39.15l-0.55.76-2.56,3.67-4.67,6.7-5,7.22-38.78,55.61-10.31,14.78h-0.67s0,0.21,0,.57h0s0,0.13,0,.38h0c0,0.14,0,.31,0,0.52l0,0,0,0c0.24,3.54,2.06,15.71,15.46,20.29h23.88v0h61.58c9.9,0,20.92-6.57,25.63-15.28l9.79-18.08,9.79,18.08c4.71,8.71,15.73,15.28,25.63,15.28h94.71S7334.47,7239.56,7318.72,7234.18Zm-143.14-4.7c-1,1.89-4.77,4.12-6.92,4.12H7130.3l-1,0h-35.85q1.33-.91,2.69-2l27.53-39.48,17.7-25.38h28.07c2.15,0,5.9,2.24,6.92,4.12l13.84,25.62,0.08,0.15,1.57,2.91Z" transform="translate(-7067.7 -7144.84)"/></svg>