<svg id="Capa_1" data-name="Capa 1" xmlns="http://www.w3.org/2000/svg" xmlns:xlink="http://www.w3.org/1999/xlink" viewBox="0 0 87.94 98.24"><defs><style>.cls-1{fill:none;}.cls-2{clip-path:url(#clip-path);}.cls-3{fill:url(#Degradado_sin_nombre_8);}.cls-4{fill:#000002;}</style><clipPath id="clip-path" transform="translate(-7155.5 -7151.03)"><path class="cls-1" d="M7164.64,7151a9.17,9.17,0,0,0-9.14,9.15v79.95a9.17,9.17,0,0,0,9.14,9.15h69.65a9.22,9.22,0,0,0,9.15-9.15v-79.95a9.17,9.17,0,0,0-9.15-9.15h-69.65Z"/></clipPath><linearGradient id="Degradado_sin_nombre_8" x1="6914.8" y1="7614.3" x2="6918.07" y2="7614.3" gradientTransform="translate(204519 -207444) rotate(90) scale(30 26.85)" gradientUnits="userSpaceOnUse"><stop offset="0" stop-color="#e8d87f"/><stop offset="1" stop-color="#b8974b"/></linearGradient></defs><title>perfil_icono</title><g class="cls-2"><rect class="cls-3" width="87.94" height="98.24"/></g><path class="cls-4" d="M7184.09,7224.75a14.47,14.47,0,0,0,9.53,2.54,8.28,8.28,0,0,0,5.92-4.76,20.73,20.73,0,0,0,9.69,6.69,66.27,66.27,0,0,0,17.53,3.6l-6-21.83a8.47,8.47,0,0,1-5.46-.69,14.86,14.86,0,0,1-5.69-5.24,15.54,15.54,0,0,1,8.15-1.46,6.55,6.55,0,0,1,5.46,6.3v2.84l4.15,2a31.3,31.3,0,0,1-1.77-6.22c-0.69-3.77-1.84-11.92-7.15-16.22s-15.84-7.38-23.37,0a17.89,17.89,0,0,0-5.07,18c0.46,3.6.62,8.3-1.54,10.38a58.5,58.5,0,0,1-4.38,4.09" transform="translate(-7155.5 -7151.03)"/><path class="cls-4" d="M7180.79,7209.53l6.61-1.08a19.75,19.75,0,0,1,7.69-18.76,21.67,21.67,0,0,1,20.53-1.84l3.08-5.61a26.32,26.32,0,0,0-26.44,1.54,26.62,26.62,0,0,0-11.45,25.76" transform="translate(-7155.5 -7151.03)"/><path class="cls-4" d="M7222,7168.25l-1.69,2.69,0.77-3.07a39.38,39.38,0,0,0-12.15-2.69l-0.69,3.93-0.23-4a36.48,36.48,0,0,0-6.38.38,45,45,0,0,0-5.92,1.31l2,8.69-2.85-8.46a39.29,39.29,0,0,0-9.92,4.61l4.84,7.46-5.77-6.84a42.54,42.54,0,0,0-4.15,3.23l1.92,3-2.54-2.38a42.56,42.56,0,0,0-6.3,7.3l4.38,3.3-4.84-2.62a33.28,33.28,0,0,0-2.46,4.61,40.79,40.79,0,0,0-2.08,5.53l4.54,1.69-4.84-.54a42.72,42.72,0,0,0-1.31,8.53l1.54,0.31-1.61,1.08a36,36,0,0,0,.31,5.07l1-.31-0.84,1.23a24.18,24.18,0,0,0,1.46,5.31,0.07,0.07,0,0,0,.08.08h0l0.62-.23-0.32.78c2.62,5.92,4.07,5.84,3.23,10.69,0,0,1.84-.62,3.23-4.46s-0.23-7.38.31-9.53a8.34,8.34,0,0,1,4-6,27.47,27.47,0,0,1,10.76-24.37c13-10.38,28.67-2.92,28.67-2.92a16.91,16.91,0,0,1,5.84-5.84,24.94,24.94,0,0,1,5.92-1.77,40.47,40.47,0,0,0-8.52-4.78" transform="translate(-7155.5 -7151.03)"/></svg>